<svg width="22" height="25" viewBox="0 0 22 25" fill="none" xmlns="http://www.w3.org/2000/svg">
<path d="M9.26946 6.56543H4.91125C4.4489 6.56543 4.00549 6.77614 3.67856 7.15122C3.35164 7.52629 3.16797 8.035 3.16797 8.56543V17.5654C3.16797 18.0959 3.35164 18.6046 3.67856 18.9796C4.00549 19.3547 4.4489 19.5654 4.91125 19.5654H17.1142C17.5766 19.5654 18.02 19.3547 18.3469 18.9796C18.6739 18.6046 18.8575 18.0959 18.8575 17.5654V8.56543C18.8575 8.035 18.6739 7.52629 18.3469 7.15122C18.02 6.77614 17.5766 6.56543 17.1142 6.56543H12.756M9.26946 6.56543V5.56543C9.26946 5.035 9.45313 4.52629 9.78006 4.15122C10.107 3.77614 10.5504 3.56543 11.0127 3.56543C11.4751 3.56543 11.9185 3.77614 12.2454 4.15122C12.5724 4.52629 12.756 5.035 12.756 5.56543V6.56543M9.26946 6.56543C9.26946 7.09586 9.45313 7.60457 9.78006 7.97964C10.107 8.35472 10.5504 8.56543 11.0127 8.56543C11.4751 8.56543 11.9185 8.35472 12.2454 7.97964C12.5724 7.60457 12.756 7.09586 12.756 6.56543M8.39782 14.5654C8.86017 14.5654 9.30358 14.3547 9.63051 13.9796C9.95744 13.6046 10.1411 13.0959 10.1411 12.5654C10.1411 12.035 9.95744 11.5263 9.63051 11.1512C9.30358 10.7761 8.86017 10.5654 8.39782 10.5654C7.93547 10.5654 7.49206 10.7761 7.16513 11.1512C6.8382 11.5263 6.65454 12.035 6.65454 12.5654C6.65454 13.0959 6.8382 13.6046 7.16513 13.9796C7.49206 14.3547 7.93547 14.5654 8.39782 14.5654ZM8.39782 14.5654C9.53618 14.5654 10.5046 15.4004 10.8646 16.5654M8.39782 14.5654C7.85686 14.5653 7.32916 14.7575 6.88739 15.1157C6.44562 15.4739 6.11151 15.9804 5.93107 16.5654M13.6277 11.5654H16.2426M13.6277 15.5654H15.371" stroke="white" stroke-width="2" stroke-linecap="round" stroke-linejoin="round"/>
</svg>
